<svg width="512" height="512" viewBox="0 0 512 512" fill="none" xmlns="http://www.w3.org/2000/svg">
  <rect width="512" height="512" rx="128" fill="#1A73E8"/>
  <path d="M128 256C128 185.308 185.308 128 256 128H384C454.692 128 512 185.308 512 256V256C512 326.692 454.692 384 384 384H256C185.308 384 128 326.692 128 256V256Z" fill="#1A73E8"/>
  <path d="M0 256C0 185.308 57.308 128 128 128H256C326.692 128 384 185.308 384 256V256C384 326.692 326.692 384 256 384H128C57.308 384 0 326.692 0 256V256Z" fill="#1A73E8"/>
  <text x="110" y="290" font-size="112" font-weight="700" fill="white" font-family="Arial">B</text>
  <text x="295" y="290" font-size="112" font-weight="700" fill="white" font-family="Arial">L</text>
</svg>
