<svg width="192" height="192" viewBox="0 0 192 192" fill="none" xmlns="http://www.w3.org/2000/svg">
  <rect width="192" height="192" rx="48" fill="#1A73E8"/>
  <path d="M44 96C44 67.29 67.29 44 96 44H148C176.71 44 200 67.29 200 96V96C200 124.71 176.71 148 148 148H96C67.29 148 44 124.71 44 96V96Z" fill="#1A73E8"/>
  <path d="M-8 96C-8 67.29 15.29 44 44 44H96C124.71 44 148 67.29 148 96V96C148 124.71 124.71 148 96 148H44C15.29 148 -8 124.71 -8 96V96Z" fill="#1A73E8"/>
  <text x="43" y="108" font-size="36" font-weight="700" fill="white" font-family="Arial">B</text>
  <text x="118" y="108" font-size="36" font-weight="700" fill="white" font-family="Arial">L</text>
</svg>
